<?xml version="1.0" encoding="UTF-8" standalone="no"?>
<!DOCTYPE svg PUBLIC "-//W3C//DTD SVG 1.1//EN" "http://www.w3.org/Graphics/SVG/1.1/DTD/svg11.dtd">
<svg xmlns="http://www.w3.org/2000/svg">
<metadata/>
<defs>
<font id="CentraleSansLightLight" horiz-adv-x="1302">
<font-face units-per-em="2048" ascent="1536" descent="-512"/>
<missing-glyph horiz-adv-x="532"/>
<glyph unicode="ﬁ" horiz-adv-x="1089" d="M74 963v81l143 21v113q0 157 94 257.5t244 100.5q185 0 334 -92l-53 -94q-119 71 -275 71q-59 0 -103 -24.5t-68.5 -64.5t-36 -84t-11.5 -91v-92h592v-1065h-123v963h-469v-963h-125v963h-143z"/>
<glyph unicode="ﬂ" horiz-adv-x="1140" d="M74 963v81l143 21v70q0 171 98.5 278t251.5 107q155 0 258 -102t103 -279v-971q0 -55 57 -55q16 0 42.5 3t31.5 3v-101q-12 -5 -52.5 -11.5t-72.5 -6.5q-35 0 -60.5 14t-39 37t-19.5 46t-6 46v1004q0 122 -65.5 191t-172.5 69q-105 0 -167 -68.5t-62 -193.5v-80h252v-102 h-252v-963h-125v963h-143z"/>
<glyph unicode="ﬃ" horiz-adv-x="1630" d="M74 963v81l143 21v115q0 159 65.5 239t221.5 80q67 0 133 -16l-12 -107q-80 13 -113 13q-50 0 -85 -16.5t-52.5 -47.5t-25 -66.5t-7.5 -82.5v-111h416v113q0 159 94.5 258.5t253.5 99.5q175 0 324 -92l-54 -92q-62 37 -134.5 53t-127.5 16q-52 0 -93.5 -16.5t-66.5 -42.5 t-41.5 -61.5t-23 -70.5t-6.5 -73v-92h592v-1065h-123v963h-469v-963h-125v963h-416v-963h-125v963h-143z"/>
<glyph unicode="ﬄ" horiz-adv-x="1691" d="M74 963v81l143 21v115q0 159 65.5 239t221.5 80q67 0 133 -16l-12 -107q-80 13 -113 13q-50 0 -85 -16.5t-52.5 -47.5t-25 -66.5t-7.5 -82.5v-111h416v70q0 171 99 278t255 107q153 0 255.5 -102t102.5 -279v-973q0 -53 60 -53q24 0 72 6v-101q-53 -18 -121 -18 q-37 0 -64 14t-41 37t-20 45.5t-6 44.5v1006q0 122 -65.5 191t-170.5 69q-103 0 -168 -71t-65 -191v-80h254v-102h-254v-963h-123v963h-416v-963h-125v963h-143z"/>
<glyph horiz-adv-x="0"/>
<glyph horiz-adv-x="2048"/>
<glyph unicode=" " horiz-adv-x="532"/>
<glyph unicode="	" horiz-adv-x="532"/>
<glyph unicode=" " horiz-adv-x="532"/>
<glyph unicode="!" horiz-adv-x="512" d="M166 70q0 39 26.5 64.5t65.5 25.5q40 0 66 -25t26 -65q0 -39 -25.5 -63.5t-66.5 -24.5q-39 0 -65.5 25t-26.5 63zM178 1434h154l-29 -1043h-96z"/>
<glyph unicode="&quot;" horiz-adv-x="751" d="M150 926l20 508h145l-94 -508h-71zM475 926l21 508h145l-94 -508h-72z"/>
<glyph unicode="#" horiz-adv-x="1599" d="M115 342l20 107h287l92 507h-287l21 109h284l72 369h107l-68 -369h449l69 369h109l-70 -369h283l-21 -109h-280l-92 -507h286l-18 -107h-287l-67 -342h-107l66 342h-451l-66 -342h-110l67 342h-288zM530 449h451l92 507h-450z"/>
<glyph unicode="$" horiz-adv-x="1173" d="M117 96l47 109q34 -18 85 -38.5t151 -43.5t194 -23q166 0 258 68t92 194q0 62 -28 110t-75 78.5t-108 55t-128.5 45t-134.5 43t-128 54.5t-108 73.5t-75 106t-28 147.5q0 168 109.5 267.5t308.5 109.5v170h88v-170q196 -10 371 -92l-45 -107q-20 9 -55 22.5t-131.5 36.5 t-180.5 23q-152 0 -247 -65t-95 -189q0 -80 45 -137t117 -90t158.5 -60.5t173.5 -59t159 -74t117 -117t45 -176.5q0 -173 -115 -273t-317 -112v-160h-88v160q-138 6 -254.5 43t-177.5 71z"/>
<glyph unicode="%" horiz-adv-x="1662" d="M113 1102q0 151 89 250.5t232 99.5t231.5 -98.5t88.5 -249.5q0 -150 -89 -248t-233 -98q-141 0 -230 98t-89 246zM217 1104q0 -111 61 -183.5t158 -72.5q98 0 155.5 70.5t57.5 181.5q0 115 -59.5 187.5t-157.5 72.5q-97 0 -156 -71t-59 -185zM358 0l824 1434h116 l-825 -1434h-115zM911 326q0 151 89.5 250.5t232.5 99.5q141 0 229 -98.5t88 -249.5q0 -150 -88 -248t-231 -98t-231.5 98t-88.5 246zM1016 330q0 -113 60.5 -184.5t156.5 -71.5q98 0 155.5 70.5t57.5 181.5q0 114 -60 187t-157 73q-98 0 -155.5 -71.5t-57.5 -184.5z"/>
<glyph unicode="&amp;" d="M104 403q0 71 23.5 132t70 111t97.5 88.5t125 82.5q-13 16 -48 57.5t-50 61.5t-37 55.5t-30.5 69.5t-8.5 72q0 134 96 217.5t221 83.5q126 0 224 -81.5t98 -213.5q0 -189 -297 -351l393 -442q7 12 17.5 33t28.5 85.5t20 127.5h100q-1 -84 -23.5 -167t-44.5 -124l-22 -41 l223 -260h-139l-156 182q-170 -182 -424 -182q-80 0 -160 28t-146.5 77.5t-108.5 128t-42 169.5zM221 406q0 -64 31 -119.5t80.5 -92t109.5 -57t121 -20.5q201 0 344 149l-420 471q-130 -69 -198 -146.5t-68 -184.5zM360 1128q0 -36 11 -68.5t39.5 -70.5t46 -57.5 t61.5 -65.5q52 26 92 51.5t79.5 59t61 74t21.5 84.5q0 86 -62 137t-147 51q-86 0 -144.5 -55t-58.5 -140z"/>
<glyph unicode="'" horiz-adv-x="428" d="M147 926l27 508h145l-98 -508h-74z"/>
<glyph unicode="(" horiz-adv-x="679" d="M106 575q0 148 42.5 286.5t113 244.5t145 184t154.5 135l60 -73q-42 -37 -72 -65t-73 -75t-73.5 -90.5t-63.5 -105.5t-53.5 -125.5t-34 -145.5t-13.5 -170q0 -89 13 -171.5t33 -145.5t54 -125.5t64 -105t74.5 -90.5t73.5 -75t73 -65l-62 -80q-81 57 -155 135t-144.5 185 t-113 247t-42.5 291z"/>
<glyph unicode=")" horiz-adv-x="681" d="M57 -203q52 45 86 78t85 89.5t84.5 114.5t66 133t49 167t16.5 196q0 88 -13.5 170t-34 145.5t-53.5 125.5t-63.5 105.5t-73.5 90.5t-74 75.5t-73 64.5l60 73q63 -45 122.5 -101.5t121.5 -138t108 -171.5t75 -204.5t29 -234.5q0 -122 -29 -238.5t-75 -207t-108 -172.5 t-121.5 -138.5t-122.5 -101.5z"/>
<glyph unicode="*" horiz-adv-x="882" d="M145 1100l248 121l-248 120l45 76l228 -153l-21 272h88l-18 -272l225 153l47 -76l-247 -120l247 -121l-47 -76l-225 154l18 -273h-88l21 273l-228 -154z"/>
<glyph unicode="+" horiz-adv-x="1040" d="M127 612v93h346v348h94v-348h346v-93h-346v-348h-94v348h-346z"/>
<glyph unicode="," horiz-adv-x="507" d="M139 -199q51 32 99 92.5t32 120.5q-16 -22 -49 -22q-39 0 -58.5 25.5t-19.5 60.5q0 40 31 67t68 27q60 0 95.5 -49.5t35.5 -110.5q0 -88 -57.5 -155t-143.5 -107z"/>
<glyph unicode="-" horiz-adv-x="1034" d="M154 614v93h729v-93h-729z"/>
<glyph unicode="." horiz-adv-x="481" d="M143 88q0 40 28.5 68t68.5 28q41 0 69.5 -28t28.5 -68t-28.5 -68t-69.5 -28q-40 0 -68.5 28t-28.5 68z"/>
<glyph unicode="/" horiz-adv-x="1003" d="M88 -68l715 1567h110l-714 -1567h-111z"/>
<glyph unicode="0" horiz-adv-x="1421" d="M133 717q0 148 40.5 281.5t113.5 234.5t183.5 160t242.5 59q130 0 239.5 -59.5t182 -160t113 -234t40.5 -281.5q0 -199 -68.5 -365t-202.5 -268t-308 -102q-131 0 -240.5 59.5t-182.5 160t-113 234t-40 281.5zM264 715q0 -166 52 -305.5t156 -226.5t241 -87t239.5 86 t153.5 224.5t51 306.5q0 167 -52 307t-155.5 228.5t-240.5 88.5q-136 0 -239 -87t-154.5 -227t-51.5 -308z"/>
<glyph unicode="1" horiz-adv-x="649" d="M63 1274l281 160h92v-1434h-121v1280l-2 2l-202 -100z"/>
<glyph unicode="2" horiz-adv-x="1124" d="M90 0v102l477 471q269 264 269 461q0 135 -95 218t-239 85q-145 2 -328 -84l-43 88q194 111 381 111q194 0 321.5 -116.5t127.5 -303.5q0 -250 -316 -547l-393 -376h754v-109h-916z"/>
<glyph unicode="3" horiz-adv-x="1105" d="M100 76l41 88q148 -70 330 -70q95 0 181 35.5t143 106.5t57 161q0 64 -23 119t-62 93.5t-90 66t-106.5 40.5t-111.5 13h-127v90h137q56 0 111.5 16t104.5 46t79.5 82t30.5 116q0 79 -48.5 138.5t-119 87.5t-150.5 30q-164 3 -297 -41l-39 99q168 62 353 59 q109 -2 203 -44t156 -126.5t62 -196.5q0 -113 -77.5 -199.5t-182.5 -111.5q145 -36 233.5 -137.5t88.5 -243.5q0 -124 -71 -219.5t-183 -143.5t-244 -48q-113 0 -212 27.5t-167 66.5z"/>
<glyph unicode="4" horiz-adv-x="1204" d="M68 369v96l757 969h97v-955h182v-110h-182v-369h-115v369h-739zM209 479h598v750z"/>
<glyph unicode="5" horiz-adv-x="1163" d="M113 88l43 92q172 -82 366 -82q166 0 286 110t120 261q0 145 -109.5 243.5t-267.5 98.5q-145 0 -281 -102l-98 51l88 674h717v-107h-615l-59 -485q146 80 268 80q199 0 339.5 -131.5t140.5 -325.5q0 -137 -71.5 -248.5t-191 -173t-260.5 -61.5q-208 0 -415 106z"/>
<glyph unicode="6" horiz-adv-x="1249" d="M141 674q0 72 6.5 142t24 149t44 147t70.5 132t100.5 109t136.5 72t175 27q161 0 363 -78l-39 -96q-169 61 -309 61q-106 0 -187 -36.5t-131.5 -97t-82.5 -149.5t-44 -184t-12 -210h4q48 111 160 180t252 69q124 0 227 -53.5t166 -159t63 -243.5q0 -205 -133 -339 t-348 -134q-130 0 -228.5 53t-158.5 148.5t-89.5 218.5t-29.5 272zM283 446q0 -148 106.5 -249t263.5 -101q160 0 260.5 105t100.5 252q0 149 -102.5 246.5t-256.5 97.5q-158 0 -265 -101t-107 -250z"/>
<glyph unicode="7" horiz-adv-x="1032" d="M68 1321v113h915v-107l-592 -1327h-133l592 1321h-782z"/>
<glyph unicode="8" horiz-adv-x="1226" d="M135 401q0 135 87.5 240.5t217.5 140.5q-98 32 -161.5 116t-63.5 192q0 160 118 261t281 101t281.5 -101t118.5 -261q0 -111 -64.5 -194t-161.5 -114q130 -38 218 -138.5t88 -240.5q0 -128 -69.5 -226t-177.5 -146.5t-233 -48.5q-126 0 -234 49t-176.5 146.5t-68.5 223.5 zM258 399q0 -135 100.5 -220t255.5 -85q154 0 255.5 83t101.5 226q0 136 -101 219t-256 83q-161 0 -258.5 -86t-97.5 -220zM334 1083q0 -112 75 -179.5t205 -67.5q132 0 206.5 67.5t74.5 179.5q0 118 -82 185t-199 67q-115 0 -197.5 -66.5t-82.5 -185.5z"/>
<glyph unicode="9" horiz-adv-x="1249" d="M121 971q0 133 59 242t172.5 174t261.5 65q122 0 217.5 -50t155.5 -139.5t91.5 -209t31.5 -262.5q0 -85 -6 -161.5t-21.5 -160t-40.5 -152.5t-65.5 -132.5t-93.5 -107t-128 -69.5t-165 -26q-87 0 -196.5 21.5t-203.5 57.5l37 95q87 -31 185.5 -46.5t167.5 -15.5 q413 0 413 676h-4q-40 -120 -151 -187t-250 -67q-92 0 -176.5 33t-149 91t-103 144t-38.5 187zM236 975q0 -150 106 -247t264 -97q154 0 258.5 99.5t104.5 248.5q0 144 -99 251t-252 107q-119 0 -208 -51.5t-131.5 -132.5t-42.5 -178z"/>
<glyph unicode=":" horiz-adv-x="499" d="M154 88q0 40 28 68t66 28q41 0 69.5 -28t28.5 -68t-28.5 -68t-69.5 -28q-38 0 -66 28t-28 68zM154 856q0 40 28 68t66 28q41 0 69.5 -28t28.5 -68q0 -39 -28.5 -66.5t-69.5 -27.5q-38 0 -66 28t-28 66z"/>
<glyph unicode=";" horiz-adv-x="546" d="M162 -201q29 19 60 48.5t55 78t12 90.5q-14 -24 -49 -24q-37 0 -56.5 25t-19.5 57q0 41 30.5 67.5t69.5 26.5q55 0 90 -49.5t35 -110.5q0 -85 -57.5 -151.5t-141.5 -104.5zM170 856q0 40 28 68t66 28q41 0 69.5 -28t28.5 -68q0 -39 -28.5 -66.5t-69.5 -27.5q-38 0 -66 28 t-28 66z"/>
<glyph unicode="&lt;" horiz-adv-x="901" d="M127 645v82l590 301v-108l-477 -234l479 -233v-113z"/>
<glyph unicode="=" horiz-adv-x="1042" d="M172 463v92h698v-92h-698zM172 780v94h698v-94h-698z"/>
<glyph unicode="&gt;" horiz-adv-x="901" d="M182 340v113l480 233l-478 234v108l590 -301v-82z"/>
<glyph unicode="?" horiz-adv-x="1007" d="M111 1370q64 49 160 79t186 30q115 0 209.5 -38.5t154.5 -120.5t60 -194q0 -61 -22 -113.5t-57 -89.5t-77 -71t-84 -66t-77 -65.5t-57 -78.5t-22 -97v-154h-104v162q0 62 21 114t54 88.5t73.5 69t80.5 63.5t73 63.5t54 76.5t21 96q0 115 -88.5 179.5t-212.5 64.5 q-71 0 -151.5 -24t-137.5 -60zM344 70q0 40 26 65t66 25t65 -25t25 -65q0 -39 -24.5 -63.5t-65.5 -24.5q-40 0 -66 25t-26 63z"/>
<glyph unicode="@" horiz-adv-x="1931" d="M152 616q0 160 46.5 295.5t126 230.5t186 161.5t226 98.5t246.5 32q125 0 244 -31.5t225 -97t186 -158.5t127 -225t47 -287q0 -97 -18.5 -177t-58 -145t-108 -101t-161.5 -36q-114 0 -169 48.5t-66 119.5q-39 -79 -119.5 -123.5t-179.5 -44.5q-128 0 -217.5 71t-89.5 193 q0 58 22.5 103t56.5 71t80 42.5t87.5 22t84.5 5.5q56 0 116.5 -10.5t91 -19.5t38.5 -13v98q0 117 -58 163t-175 46q-106 0 -246 -39l-23 72q143 47 289 47q309 0 309 -285v-323q0 -74 43 -118t125 -44q71 0 122 33t78.5 90t39.5 120.5t12 137.5q0 140 -43.5 258 t-115.5 198.5t-167.5 137t-199 82.5t-209.5 26q-155 -2 -290 -54t-234 -143.5t-156 -226.5t-57 -296q0 -216 97.5 -391t265 -273t370.5 -98q149 0 283 55l32 -84q-167 -66 -321 -66q-166 0 -317.5 65.5t-262 178t-176 271.5t-65.5 337zM715 442q0 -85 66 -134.5t155 -49.5 q105 0 185.5 66.5t80.5 164.5v74q-8 5 -39.5 15.5t-88 21t-109.5 10.5q-46 0 -87 -8t-79.5 -26t-61 -52.5t-22.5 -81.5z"/>
<glyph unicode="A" horiz-adv-x="1327" d="M45 0l551 1452h137l551 -1452h-137l-152 401h-661l-152 -401h-137zM369 506h592l-295 801h-2z"/>
<glyph unicode="B" horiz-adv-x="1370" d="M209 0v1434h553q170 0 285.5 -113.5t115.5 -282.5q0 -116 -57.5 -196t-140.5 -109q121 -36 197.5 -123t76.5 -219q0 -168 -117 -279.5t-284 -111.5h-629zM338 121h502q105 0 188.5 82t83.5 192q0 109 -81.5 191t-199.5 82h-493v-547zM338 780h450q109 0 178.5 70.5 t69.5 183.5q0 123 -79.5 201t-192.5 78h-426v-533z"/>
<glyph unicode="C" horiz-adv-x="1386" d="M119 717q0 205 103 375t274 265t370 95q105 0 216 -27t198 -71l-47 -97q-19 9 -52.5 21.5t-130.5 34t-186 22.5q-126 0 -239.5 -48.5t-195 -130.5t-129.5 -196.5t-48 -242.5q0 -170 81 -312.5t222 -224.5t309 -82q89 1 181.5 20.5t140.5 38.5l47 19l47 -96 q-87 -44 -198 -71t-216 -27q-199 0 -370 95t-274 265t-103 375z"/>
<glyph unicode="D" horiz-adv-x="1458" d="M209 0v1434h485q163 0 322 -91q163 -96 239 -260.5t76 -365.5q0 -97 -17.5 -186t-54.5 -171.5t-98.5 -152t-144.5 -117.5q-87 -50 -173.5 -70t-148.5 -20h-485zM338 121h336q147 0 284 80q126 73 186 208t60 308q0 175 -60 308.5t-186 207.5q-133 80 -284 80h-336v-1192z "/>
<glyph unicode="E" horiz-adv-x="1325" d="M209 0v1434h975v-121h-848v-557h727v-117h-727v-518h878v-121h-1005z"/>
<glyph unicode="F" horiz-adv-x="1245" d="M209 0v1434h975v-121h-848v-568h727v-116h-727v-629h-127z"/>
<glyph unicode="G" horiz-adv-x="1533" d="M121 717q0 150 58.5 285.5t158 234.5t239.5 157t297 58q108 0 229 -30.5t216 -80.5l-49 -96q-2 1 -21.5 9t-43 17t-61.5 21t-77 21t-88 15.5t-96 6.5q-138 0 -257 -51t-199.5 -136.5t-126.5 -197.5t-46 -233q0 -168 79.5 -310t220.5 -225.5t312 -83.5q239 0 420 160v344 h-399v109h518v-500q-129 -125 -260.5 -177t-276.5 -52q-153 0 -291 56.5t-238 153.5t-159 234t-59 291z"/>
<glyph unicode="H" horiz-adv-x="1517" d="M209 0v1434h127v-654h846v654h127v-1434h-127v664h-846v-664h-127z"/>
<glyph unicode="I" horiz-adv-x="544" d="M209 0v1434h127v-1434h-127z"/>
<glyph unicode="J" horiz-adv-x="577" d="M4 -201q12 5 37 20t60 44t66 62.5t53 79.5t22 91v1215l-136 28v95h263v-1305q0 -137 -90 -246.5t-232 -169.5z"/>
<glyph unicode="K" horiz-adv-x="1275" d="M209 0v1434h127v-574l-2 -264q103 127 216 263t265 315.5t219 259.5h156l-528 -625l598 -809h-150l-528 723l-246 -285v-438h-127z"/>
<glyph unicode="L" horiz-adv-x="1210" d="M209 0v1434h127v-1313h819v-121h-946z"/>
<glyph unicode="M" horiz-adv-x="1857" d="M209 0v1434h176l541 -1196h4l543 1196h176v-1434h-125l-2 1247h-4l-533 -1163h-113l-534 1167h-2v-1251h-127z"/>
<glyph unicode="N" horiz-adv-x="1497" d="M209 0v1434h131q520 -772 825 -1237h4l-8 510v727h127v-1434h-133q-529 801 -821 1241h-4l6 -512v-729h-127z"/>
<glyph unicode="O" horiz-adv-x="1701" d="M119 717q0 203 100 372.5t268.5 266t364.5 96.5q200 0 368 -98.5t265.5 -267.5t97.5 -369q0 -202 -99.5 -371.5t-267.5 -266.5t-364 -97q-200 0 -368.5 98t-266.5 267t-98 370zM252 717q0 -171 78.5 -313t216.5 -224t305 -82q166 0 303.5 82t216 224t78.5 313 q0 169 -78 310.5t-215.5 224.5t-304.5 83q-165 0 -302.5 -81.5t-217.5 -223.5t-80 -313z"/>
<glyph unicode="P" horiz-adv-x="1300" d="M209 0v1434h598q110 0 204.5 -60t148.5 -158t54 -206q0 -109 -53.5 -207.5t-147 -159.5t-200.5 -61h-477v-582h-127zM336 700h471q113 0 196.5 95t83.5 213q0 130 -91.5 217.5t-219.5 87.5h-440v-613z"/>
<glyph unicode="Q" horiz-adv-x="1695" d="M119 719q0 201 99.5 370t267 266t362.5 97q148 0 283 -58.5t232 -156.5t154.5 -233.5t57.5 -284.5q0 -241 -143 -434t-369 -256v-4q94 -49 225.5 -95.5t237.5 -74.5l-47 -111q-72 16 -241.5 87.5t-258.5 127.5q-12 7 -22 11.5t-17 7t-19 3.5t-18.5 1.5t-25.5 0t-31 -0.5 q-148 0 -283 59t-232 158t-154.5 235t-57.5 285zM254 717q0 -128 46.5 -243t125.5 -197.5t189.5 -130.5t232.5 -48t232.5 48t189.5 130.5t125.5 196.5t46.5 242q0 171 -78.5 314t-215.5 225.5t-300 82.5t-300 -82.5t-215.5 -225t-78.5 -312.5z"/>
<glyph unicode="R" horiz-adv-x="1374" d="M209 0v1434h614q168 0 287 -119t119 -285q0 -140 -86.5 -250t-222.5 -141l358 -639h-141l-349 625h-452v-625h-127zM336 741h487q116 0 198.5 87t82.5 202q0 127 -91.5 205t-219.5 78h-457v-572z"/>
<glyph unicode="S" horiz-adv-x="1222" d="M117 98l47 113q37 -19 89.5 -39.5t159 -45t205.5 -24.5q174 0 271.5 67.5t97.5 188.5q0 64 -29.5 112.5t-79 79.5t-113.5 55.5t-135 44.5t-142 42t-135 53.5t-113.5 72.5t-79 105.5t-29.5 147.5q0 178 127.5 279.5t353.5 101.5q129 0 246.5 -29t196.5 -63l-43 -109 q-8 3 -22 8.5t-58 20t-88 25t-106.5 19.5t-119.5 9q-102 0 -181 -26.5t-127 -84.5t-48 -141q0 -64 29.5 -113t79 -80.5t113.5 -56t135 -45t142 -42.5t135 -53t113.5 -72t79 -104.5t29.5 -145.5q0 -182 -134.5 -284.5t-367.5 -102.5q-111 0 -227 25.5t-171.5 47t-100.5 43.5z "/>
<glyph unicode="T" horiz-adv-x="1241" d="M47 1313v121h1147v-121h-510v-1313h-127v1313h-510z"/>
<glyph unicode="U" horiz-adv-x="1468" d="M199 586v848h123v-959q0 -145 122 -249.5t289 -104.5q169 0 290.5 104.5t121.5 249.5v959h125v-848q0 -97 -8 -170q-17 -177 -168.5 -296.5t-360.5 -119.5q-138 0 -255 54.5t-188.5 149.5t-82.5 212q-8 73 -8 170z"/>
<glyph unicode="V" horiz-adv-x="1280" d="M41 1434h135l461 -1272h6l461 1272h135l-534 -1434h-130z"/>
<glyph unicode="W" horiz-adv-x="1947" d="M55 1434h140l354 -1235h4l356 1235h131l355 -1235h4l352 1235h141l-434 -1434h-127l-356 1227l-359 -1227h-124z"/>
<glyph unicode="X" horiz-adv-x="1335" d="M51 0l541 713l-541 721h152l461 -623h6l463 623h149l-541 -721l541 -713h-152l-460 612h-6l-461 -612h-152z"/>
<glyph unicode="Y" horiz-adv-x="1196" d="M27 1434h139l430 -727h4l430 727h139l-510 -846v-588h-122v588z"/>
<glyph unicode="Z" horiz-adv-x="1253" d="M82 0v92l926 1229l-2 4l-359 -6h-538v115h1050v-103l-915 -1216l2 -4l356 6h557v-117h-1077z"/>
<glyph unicode="[" horiz-adv-x="573" d="M180 -356v1818h314v-102h-209v-1616h209v-100h-314z"/>
<glyph unicode="\" horiz-adv-x="1003" d="M90 1499h109l716 -1567h-112z"/>
<glyph unicode="]" horiz-adv-x="573" d="M80 -256h209v1616h-209v102h313v-1818h-313v100z"/>
<glyph unicode="_" horiz-adv-x="1417" d="M295 -174h825v-92h-825v92z"/>
<glyph unicode="`" horiz-adv-x="569" d="M164 1462l115 64l127 -314h-70z"/>
<glyph unicode="a" horiz-adv-x="1157" d="M82 315q0 88 37 153.5t102 103t145 55.5t175 18q139 0 299 -29v111q0 136 -76 191t-215 55q-78 0 -174.5 -13t-163.5 -34l-27 96q185 61 383 61q201 0 298.5 -81.5t97.5 -260.5v-577q0 -47 59 -47q38 0 74 6v-105q-8 -5 -46 -11.5t-65 -6.5q-54 0 -96.5 29t-42.5 84v73 q-45 -90 -150 -147t-233 -57q-102 0 -187 36t-139.5 113.5t-54.5 183.5zM203 319q0 -108 83.5 -168.5t194.5 -60.5q140 0 249.5 91t109.5 208v117q-38 9 -122.5 21t-164.5 12q-67 0 -125 -10.5t-111 -34t-83.5 -68.5t-30.5 -107z"/>
<glyph unicode="b" horiz-adv-x="1316" d="M172 0v1499h123v-651q52 110 165 172.5t240 62.5q148 0 266.5 -78.5t181 -204t62.5 -268.5q0 -151 -65.5 -277t-182.5 -199.5t-262 -73.5q-139 0 -252.5 68t-160.5 183l-19 -233h-96zM285 532q0 -117 50.5 -216.5t142 -158.5t204.5 -59q169 0 287 124t118 310 q0 184 -116.5 309.5t-288.5 125.5q-167 0 -282 -127.5t-115 -307.5z"/>
<glyph unicode="c" horiz-adv-x="1062" d="M104 532q0 148 73.5 274.5t202 201.5t279.5 75q169 0 318 -71l-45 -101q-12 6 -38 16t-93.5 25t-132.5 15q-97 0 -181 -37t-140 -98t-88 -139.5t-32 -160.5t32 -160t88 -139t140 -98t181 -37q65 0 132.5 15t93.5 25t38 16l45 -101q-149 -71 -318 -71q-114 0 -217 44 t-177 118.5t-117.5 176t-43.5 211.5z"/>
<glyph unicode="d" horiz-adv-x="1316" d="M106 532q0 143 62.5 268.5t181 204t266.5 78.5q127 0 240.5 -62.5t165.5 -172.5v651h123v-1499h-96l-19 233q-47 -114 -161 -182.5t-253 -68.5q-145 0 -262 73.5t-182.5 199.5t-65.5 277zM229 532q0 -185 118.5 -309.5t287.5 -124.5q113 0 204.5 59t142 158.5t50.5 216.5 q0 180 -115 307.5t-282 127.5q-172 0 -289 -125.5t-117 -309.5z"/>
<glyph unicode="e" horiz-adv-x="1204" d="M106 530q0 150 67 276.5t187.5 201.5t268.5 75q112 0 206 -45.5t154 -121.5t93.5 -171.5t33.5 -197.5q0 -18 -1.5 -33.5t-2.5 -21.5l-2 -7h-874q9 -168 127 -277.5t294 -109.5q152 0 332 78l43 -102q-189 -92 -375 -92q-160 0 -286.5 72t-195.5 197t-69 279zM233 582h762 q-2 72 -26.5 140t-68.5 123t-113 88.5t-152 33.5q-162 0 -276.5 -111.5t-125.5 -273.5z"/>
<glyph unicode="f" horiz-adv-x="675" d="M74 963v81l143 21v152q0 159 65.5 239t221.5 80q67 0 133 -16l-12 -107q-74 12 -113 12q-96 0 -134 -57.5t-38 -155.5v-147h281v-102h-281v-963h-123v963h-143z"/>
<glyph unicode="g" horiz-adv-x="1089" d="M109 -66q0 58 32.5 120t100.5 108q-95 57 -95 160q0 92 103 170q-50 41 -75 105.5t-25 133.5q0 164 109.5 258t291.5 94q58 0 125 -18h332v-86l-162 -23q110 -66 110 -225q0 -156 -103.5 -247t-299.5 -91q-132 0 -217 43q-14 -8 -28 -19t-30 -36.5t-16 -54.5 q0 -22 10 -40t30 -30t41 -21.5t53.5 -14.5t56.5 -8.5t60.5 -4.5t55 -1.5t49.5 -0.5h23q67 0 120.5 -7t100.5 -25t78.5 -47t49.5 -73.5t18 -103.5q0 -86 -42.5 -147.5t-113.5 -92.5t-143 -44t-152 -13q-61 0 -119 7t-119.5 27t-106.5 50.5t-74 81.5t-29 116zM229 -51 q0 -57 32.5 -97t86 -58.5t104 -26t105.5 -7.5q42 0 82 4t87 16t81 31.5t57 54.5t23 81q0 83 -65 119t-195 36q-197 0 -283 19q-115 -67 -115 -172zM274 731q0 -109 73 -172t206 -63t205.5 62.5t72.5 172.5q0 115 -76.5 182.5t-203.5 67.5q-128 0 -202.5 -67.5t-74.5 -182.5z "/>
<glyph unicode="h" horiz-adv-x="1243" d="M172 0v1499h123v-639q12 31 41 66t75 72t116 61t149 24q192 0 298.5 -119t106.5 -337v-627h-123v625q0 157 -79.5 247.5t-225.5 90.5q-69 0 -128 -22t-100 -58.5t-70.5 -83.5t-44 -96.5t-15.5 -98.5v-604h-123z"/>
<glyph unicode="i" horiz-adv-x="489" d="M86 979v86h231v-1065h-122v948zM141 1346q0 40 27.5 68t67.5 28q39 0 68.5 -28t29.5 -66q0 -40 -29.5 -68.5t-68.5 -28.5q-40 0 -67.5 27.5t-27.5 67.5z"/>
<glyph unicode="j" horiz-adv-x="495" d="M55 -264q19 9 40 23.5t47 39.5t42.5 62.5t16.5 79.5v1007l-117 29v88h240v-1036q0 -90 -21 -160t-57 -112.5t-72.5 -67t-77.5 -37.5zM139 1346q0 40 26.5 68t65.5 28q40 0 69.5 -28.5t29.5 -67.5t-29.5 -67t-69.5 -28q-39 0 -65.5 27.5t-26.5 67.5z"/>
<glyph unicode="k" horiz-adv-x="1007" d="M172 0v1499h127v-706l-4 -326q262 325 502 598h159l-432 -492l434 -573h-147l-358 481l-154 -170v-311h-127z"/>
<glyph unicode="l" horiz-adv-x="518" d="M176 147v1352h125v-1331q0 -55 57 -55q32 0 74 5v-100q-14 -5 -53.5 -11.5t-71.5 -6.5q-40 0 -68.5 15.5t-41 40.5t-17 46.5t-4.5 44.5z"/>
<glyph unicode="m" horiz-adv-x="1845" d="M172 0v1065h98l23 -174q29 71 86 116t115.5 60.5t123.5 15.5q126 0 211 -59.5t121 -157.5q35 91 135.5 154t212.5 63q192 0 286.5 -104t94.5 -295v-684h-123v694q0 130 -72 199.5t-198 69.5q-130 0 -214.5 -89.5t-84.5 -222.5v-651h-123v698q0 125 -76 195t-194 70 q-126 0 -212.5 -91.5t-86.5 -220.5v-651h-123z"/>
<glyph unicode="n" horiz-adv-x="1243" d="M172 0v1065h98l23 -215q4 20 20.5 47t49 60t75 61t105.5 46.5t133 18.5q192 0 298.5 -119t106.5 -337v-627h-123v625q0 157 -79.5 247.5t-225.5 90.5q-87 0 -158 -35t-113 -90.5t-64.5 -119t-22.5 -126.5v-592h-123z"/>
<glyph unicode="o" d="M104 530q0 114 43.5 217t117 176.5t174.5 116.5t212 43q149 0 275 -73t199 -200t73 -280q0 -151 -73.5 -277t-199.5 -198.5t-274 -72.5t-274 72.5t-199.5 198.5t-73.5 277zM227 530q0 -180 123.5 -306t300.5 -126q175 0 299.5 126t124.5 306q0 182 -124.5 309.5 t-299.5 127.5q-177 0 -300.5 -127t-123.5 -310z"/>
<glyph unicode="p" horiz-adv-x="1320" d="M172 -348v1413h98l19 -229q56 122 167.5 184.5t245.5 62.5q143 0 260 -73.5t182.5 -199.5t65.5 -278q0 -144 -61.5 -268.5t-180 -203t-268.5 -78.5q-80 0 -158.5 24.5t-147.5 80.5t-99 134v-569h-123zM285 532q0 -184 115.5 -309t283.5 -125q170 0 286.5 126t116.5 308 q0 184 -117.5 309.5t-283.5 125.5q-170 0 -285.5 -127t-115.5 -308z"/>
<glyph unicode="q" horiz-adv-x="1320" d="M111 532q0 152 65.5 278t182 199.5t259.5 73.5q135 0 246.5 -62.5t167.5 -184.5l19 229h98v-1413h-123v569q-30 -78 -99 -134t-147.5 -80.5t-158.5 -24.5q-150 0 -268.5 78.5t-180 203t-61.5 268.5zM233 532q0 -182 117 -308t287 -126q168 0 283.5 125t115.5 309 q0 181 -115.5 308t-285.5 127q-166 0 -284 -125.5t-118 -309.5z"/>
<glyph unicode="r" horiz-adv-x="702" d="M172 0v1061h98l19 -189q41 98 131.5 145.5t212.5 47.5v-121q-69 0 -128.5 -19.5t-107 -58t-75 -102.5t-27.5 -146v-618h-123z"/>
<glyph unicode="s" horiz-adv-x="970" d="M106 70l37 100q50 -26 143.5 -53t194.5 -27q134 0 205.5 49.5t71.5 134.5q0 57 -35.5 96.5t-92 62t-125 41t-137.5 41.5t-125.5 54.5t-92 88t-35.5 135.5q0 132 98.5 211t273.5 79q99 0 192 -22.5t150 -48.5l-38 -101q-16 7 -44 17.5t-106.5 28.5t-146.5 18 q-118 0 -189.5 -47t-71.5 -133q0 -56 35.5 -95t92.5 -61.5t125.5 -41.5t137 -42.5t125.5 -55t92.5 -88.5t35.5 -135q0 -137 -105.5 -215.5t-288.5 -78.5q-85 0 -171 18.5t-129 35.5t-77 34z"/>
<glyph unicode="t" horiz-adv-x="710" d="M68 963v81l159 21l23 307h100v-307h285v-102h-285v-623q0 -114 42 -172.5t138 -58.5q56 0 142 14l18 -90q-86 -33 -176 -33q-159 0 -223 85.5t-64 260.5v617h-159z"/>
<glyph unicode="u" horiz-adv-x="1243" d="M162 426v639h125v-625q0 -163 77.5 -250.5t251.5 -87.5q133 0 230.5 97t97.5 233v633h127v-1065h-98l-19 193q-46 -102 -143.5 -156.5t-216.5 -54.5q-217 0 -324.5 114t-107.5 330z"/>
<glyph unicode="v" horiz-adv-x="1001" d="M43 1065h129l326 -901h6l325 901h129l-393 -1065h-129z"/>
<glyph unicode="w" horiz-adv-x="1609" d="M47 1065h131l287 -905h6l268 905h131l269 -905h6l287 905h131l-355 -1065h-133l-270 893l-270 -893h-134z"/>
<glyph unicode="x" horiz-adv-x="1079" d="M47 0l412 537l-400 528h152l326 -442h6l325 442h152l-399 -528l411 -537h-153l-336 453h-6l-338 -453h-152z"/>
<glyph unicode="y" horiz-adv-x="1056" d="M39 1065h131l356 -926h4l353 926h133l-436 -1100q-23 -55 -39.5 -90.5t-46 -82t-59 -74t-72.5 -47t-93 -19.5q-82 0 -176 33l27 112q85 -25 141 -22q32 0 60 14.5t47.5 34t39 53.5t30.5 59.5t26 65.5z"/>
<glyph unicode="z" horiz-adv-x="1044" d="M80 0v94l737 864l-2 5l-356 -2h-355v104h854v-96l-727 -867l2 -4l357 4h368v-102h-878z"/>
<glyph unicode="{" horiz-adv-x="649" d="M82 510v90q69 2 107 32.5t38 106.5v449q2 138 65 206t216 68h65v-100h-65q-93 0 -132.5 -41t-39.5 -131v-463q0 -71 -25 -114.5t-86 -57.5q61 -16 86 -59.5t25 -114.5v-461q0 -90 39.5 -132t132.5 -42h65v-98h-65q-153 0 -216 67.5t-65 206.5v449q0 74 -38.5 105.5 t-106.5 33.5z"/>
<glyph unicode="|" horiz-adv-x="462" d="M178 -305v1935h107v-1935h-107z"/>
<glyph unicode="}" horiz-adv-x="649" d="M76 -254h65q94 0 135 42.5t41 131.5v461q0 72 23 115t84 59q-61 14 -84 57t-23 115v463q0 89 -41 130.5t-135 41.5h-65v100h65q79 0 134 -18t86.5 -54.5t45.5 -85t15 -116.5v-449q0 -76 38 -106.5t107 -32.5v-90q-68 -2 -106.5 -33.5t-38.5 -105.5v-449 q-2 -139 -64 -206.5t-217 -67.5h-65v98z"/>
<glyph unicode="¡" horiz-adv-x="512" d="M168 1362q0 38 26 63t66 25q39 0 64.5 -25.5t25.5 -62.5q0 -40 -26 -66t-64 -26q-40 0 -66 26t-26 66zM180 0l27 1034h98l29 -1034h-154z"/>
<glyph unicode="¢" horiz-adv-x="1200" d="M145 532q0 213 145.5 371.5t360.5 177.5v164h78v-162q148 -5 289 -71l-45 -101q-12 6 -38 16t-93.5 25t-132.5 15q-97 0 -181 -37t-140 -98t-88 -139.5t-32 -160.5q0 -111 55 -210t157 -161.5t227 -62.5q26 0 53 2.5t49.5 6t44 8t38 9.5t32 10t24.5 8.5t16 6.5l7 3 l43 -99q-42 -26 -123.5 -45t-161.5 -24v-168h-78v168q-139 11 -255.5 87.5t-183.5 198.5t-67 262z"/>
<glyph unicode="£" horiz-adv-x="1165" d="M133 0v106q5 2 12.5 7t27 23.5t34.5 40t27 57.5t12 77v330h-111v82h111v338q0 168 123.5 279.5t294.5 111.5q94 0 179 -44.5t146 -119.5l-84 -84q-95 121 -241 121q-125 0 -208 -78t-83 -203v-321h506v-82h-506v-301q0 -164 -105 -234h770v-106h-905z"/>
<glyph unicode="¥" horiz-adv-x="1331" d="M94 1434h144l428 -721h6l428 721h143l-512 -846v-62h266v-77h-266v-99h266v-80h-266v-270h-125v270h-266v80h266v99h-266v77h266v62z"/>
<glyph unicode="§" horiz-adv-x="1230" d="M129 543q0 62 30.5 112.5t81.5 83.5t108.5 54t121.5 30q-65 20 -115.5 43t-100.5 57.5t-77.5 84t-27.5 110.5q0 69 33 125t83.5 90.5t115.5 58t125.5 33t117.5 9.5q90 0 189.5 -26.5t174.5 -70.5l-65 -98q-61 35 -145.5 55.5t-162.5 20.5q-58 0 -115.5 -11.5t-109.5 -34 t-84.5 -63t-32.5 -92.5q0 -86 93 -140.5t292 -101.5q6 -2 19 -5q40 -11 62 -16.5t63 -18.5t65.5 -22.5t60.5 -26t57.5 -32.5t47 -38.5t39.5 -46t23.5 -54t9.5 -63.5q0 -65 -34 -118.5t-89 -87.5t-113 -55t-118 -30q52 -17 94.5 -34t88.5 -44t77.5 -57.5t52 -73t20.5 -90.5 q0 -67 -30.5 -120.5t-80 -87.5t-115 -57t-131 -32.5t-132.5 -9.5q-107 0 -209.5 26t-173.5 70l63 102q138 -77 332 -77q56 0 112 9t112 29.5t91 60.5t35 95q0 30 -12.5 56.5t-31 46t-51 38.5t-61 32t-74 27.5t-76.5 22.5t-81 21q-55 14 -92.5 25.5t-95.5 32t-97.5 45 t-78 57.5t-58.5 77t-20 95zM256 549q0 -64 52.5 -114t129 -74.5t158.5 -24.5q50 -1 109.5 9t124 31.5t107 65.5t42.5 103q0 52 -33 93t-87 64.5t-115 35.5t-123 12q-88 1 -167.5 -19t-137 -67.5t-60.5 -114.5z"/>
<glyph unicode="¨" horiz-adv-x="897" d="M164 1311q0 36 26 62t60 26q42 0 67 -24.5t25 -63.5q0 -37 -25 -60.5t-67 -23.5q-37 0 -61.5 23.5t-24.5 60.5zM553 1311q0 36 26 62t62 26q41 0 66.5 -24.5t25.5 -63.5q0 -37 -25.5 -60.5t-66.5 -23.5q-37 0 -62.5 24t-25.5 60z"/>
<glyph unicode="©" horiz-adv-x="1699" d="M135 717q0 146 56.5 278.5t152.5 228.5t228.5 153t277.5 57t277 -57t228 -153t153 -229t57 -278t-57 -277.5t-153.5 -229t-228.5 -153.5t-276 -57q-145 0 -277 57t-228 153.5t-153 229t-57 277.5zM203 717q0 -176 86.5 -325.5t235.5 -236.5t325 -87q175 0 323.5 87 t235 236.5t86.5 325.5q0 175 -87 324t-235.5 236t-322.5 87q-175 0 -324 -87t-236 -236t-87 -324zM504 719q0 149 105.5 254.5t254.5 105.5q128 0 230 -88l-54 -71q-76 57 -174 57q-108 0 -184 -77t-76 -183t75.5 -183t182.5 -77q94 0 176 59l52 -74q-90 -84 -228 -84 q-151 0 -255.5 105t-104.5 256z"/>
<glyph unicode="ª" horiz-adv-x="1017" d="M164 539v84h690v-84h-690zM172 975q1 61 27 104.5t70.5 67.5t97 34.5t116.5 10.5q37 0 86.5 -9t80.5 -19l30 -9v57q-2 51 -10 84t-30 61t-64.5 41t-108.5 13q-58 0 -188 -33l-19 78q127 43 227 43q145 0 215 -62.5t70 -195.5v-387q0 -27 37 -27q6 0 23 2t22 2v-73 q-35 -19 -82 -19q-36 0 -59 21t-23 51v63q-28 -62 -95.5 -99.5t-156.5 -37.5q-108 0 -187 64t-79 174zM264 975q0 -69 56.5 -111.5t128.5 -42.5q95 0 161.5 57t69.5 142v65q-99 37 -193 37q-223 0 -223 -147z"/>
<glyph unicode="«" horiz-adv-x="1138" d="M113 520v25l413 463l66 -68l-332 -408l330 -409l-64 -66zM537 520v25l415 463l66 -68l-334 -408l332 -409l-64 -66z"/>
<glyph unicode="­" horiz-adv-x="1034" d="M154 614v93h729v-93h-729z"/>
<glyph unicode="®" horiz-adv-x="1245" d="M164 973q0 126 61.5 232t167 167.5t230.5 61.5t230.5 -61.5t166.5 -167.5t61 -232q0 -123 -61.5 -229t-167 -168t-229.5 -62q-190 0 -324.5 135t-134.5 324zM221 973q0 -166 118 -284t284 -118q162 0 281.5 117t119.5 285q0 166 -117.5 284.5t-283.5 118.5t-284 -118.5 t-118 -284.5zM463 739v475h203q55 0 94 -40t39 -97q0 -44 -28.5 -80.5t-72.5 -48.5l121 -209h-57l-119 203h-129v-203h-51zM514 993h152q34 0 58 25t24 59q0 40 -28.5 63t-68.5 23h-137v-170z"/>
<glyph unicode="¯" horiz-adv-x="931" d="M164 1235v86h604v-86h-604z"/>
<glyph unicode="°" horiz-adv-x="624" d="M117 1257q0 81 60 137t136 56q79 0 137 -54.5t58 -135.5q0 -85 -58 -140t-137 -55q-78 0 -137 54.5t-59 137.5zM182 1255q0 -52 39.5 -87t91.5 -35q53 0 91 33.5t38 88.5t-39.5 90t-89.5 35q-52 0 -91.5 -36.5t-39.5 -88.5z"/>
<glyph unicode="±" horiz-adv-x="1017" d="M166 711v88h299v272h90v-272h297v-88h-297v-275h-90v275h-299zM168 188v91h684v-91h-684z"/>
<glyph unicode="´" horiz-adv-x="569" d="M164 1212l125 314l117 -64l-173 -250h-69z"/>
<glyph unicode="¶" horiz-adv-x="1075" d="M115 1034q0 122 54.5 215t138.5 139t181 46h361v-1608h-96v1509h-123v-1509h-99v795h-61q-86 0 -155 34.5t-112 93t-66 131.5t-23 154z"/>
<glyph unicode="·" horiz-adv-x="530" d="M145 612q0 50 34.5 84.5t84.5 34.5t85.5 -35t35.5 -84t-35.5 -83.5t-85.5 -34.5t-84.5 34.5t-34.5 83.5z"/>
<glyph unicode="¸" horiz-adv-x="673" d="M164 -381l20 62q26 -7 60 -10t74.5 -0.5t68 22t27.5 55.5q0 34 -22.5 55t-69.5 21l-39 -4l-31 35l55 155h80l-35 -121q71 8 114.5 -31.5t43.5 -109.5q0 -60 -37 -97.5t-92 -48t-112.5 -6t-104.5 22.5z"/>
<glyph unicode="º" horiz-adv-x="1138" d="M164 575v84h811v-84h-811zM164 1151v6q0 160 114.5 269.5t292.5 109.5q177 0 290.5 -108t113.5 -269v-6q0 -158 -116 -268.5t-294 -110.5q-175 0 -288 108.5t-113 268.5zM274 1153q0 -118 85 -199.5t214 -81.5q127 0 209 80t82 199v6q0 118 -85 199.5t-214 81.5 q-126 0 -208.5 -80.5t-82.5 -198.5v-6z"/>
<glyph unicode="»" horiz-adv-x="1138" d="M127 940l66 68l415 -463v-25l-415 -463l-64 66l332 409zM553 940l65 68l414 -463v-25l-414 -463l-63 66l330 409z"/>
<glyph unicode="¿" horiz-adv-x="985" d="M127 309q0 61 21.5 113t56 89t76 70t83.5 65t76.5 65t56 77.5t21.5 96.5v151h107v-159q0 -61 -20.5 -112.5t-54 -88t-73.5 -69t-79.5 -63.5t-73 -63.5t-54 -76.5t-20.5 -95q0 -113 85.5 -176t207.5 -63q68 0 142 23.5t132 60.5l57 -86q-65 -50 -154.5 -79.5t-176.5 -29.5 q-115 0 -207.5 38.5t-150.5 119t-58 192.5zM477 1362q0 37 25.5 62.5t66.5 25.5q38 0 64 -25t26 -63q0 -39 -25.5 -64.5t-64.5 -25.5q-40 0 -66 25t-26 65z"/>
<glyph unicode="À" horiz-adv-x="1327" d="M45 0l551 1452h137l551 -1452h-137l-152 401h-661l-152 -401h-137zM369 506h592l-295 801h-2zM449 1772l114 63l127 -313h-69z"/>
<glyph unicode="Á" horiz-adv-x="1327" d="M45 0l551 1452h137l551 -1452h-137l-152 401h-661l-152 -401h-137zM369 506h592l-295 801h-2zM639 1522l125 313l117 -63l-172 -250h-70z"/>
<glyph unicode="Â" horiz-adv-x="1327" d="M45 0l551 1452h137l551 -1452h-137l-152 401h-661l-152 -401h-137zM369 506h592l-295 801h-2zM406 1522l210 229h93l213 -229h-103l-155 143l-158 -143h-100z"/>
<glyph unicode="Ã" horiz-adv-x="1327" d="M45 0l551 1452h137l551 -1452h-137l-152 401h-661l-152 -401h-137zM367 1573q33 58 81.5 91.5t104.5 33.5q41 0 119.5 -41t130.5 -41q67 0 115 65l43 -32q-32 -57 -82 -91t-107 -34q-43 0 -121.5 40t-126.5 40q-26 0 -50 -11.5t-34 -21t-30 -31.5zM369 506h592l-295 801 h-2z"/>
<glyph unicode="Ä" horiz-adv-x="1327" d="M45 0l551 1452h137l551 -1452h-137l-152 401h-661l-152 -401h-137zM369 506h592l-295 801h-2zM379 1606q0 37 25.5 62.5t60.5 25.5q42 0 67 -24t25 -64q0 -36 -25 -60t-67 -24q-37 0 -61.5 24.5t-24.5 59.5zM770 1606q0 37 25.5 62.5t60.5 25.5q42 0 67 -24t25 -64 q0 -36 -25 -60t-67 -24q-37 0 -61.5 24.5t-24.5 59.5z"/>
<glyph unicode="Å" horiz-adv-x="1327" d="M45 0l551 1452h137l551 -1452h-137l-152 401h-661l-152 -401h-137zM369 506h592l-295 801h-2zM492 1690q0 70 52.5 117.5t119.5 47.5t119.5 -47.5t52.5 -117.5t-52.5 -118t-119.5 -48t-119.5 48t-52.5 118zM549 1690q0 -44 35.5 -75.5t79.5 -31.5t79 31.5t35 75.5t-35 75 t-79 31t-79.5 -31t-35.5 -75z"/>
<glyph unicode="Æ" horiz-adv-x="1923" d="M35 0l678 1434h1071v-121h-770v-557h649v-117h-649v-516h801v-123h-928v401h-525l-182 -401h-145zM408 506h479v807h-111z"/>
<glyph unicode="Ç" horiz-adv-x="1388" d="M119 717q0 205 103 375t274 265t370 95q105 0 216 -27t198 -71l-47 -97q-19 9 -52.5 21.5t-130.5 34t-186 22.5q-126 0 -239.5 -48.5t-195 -130.5t-129.5 -196.5t-48 -242.5q0 -170 81 -312.5t222 -224.5t309 -82q89 1 181.5 20.5t140.5 38.5l47 19l47 -96 q-186 -92 -406 -98l-26 -93q12 2 22 2q61 0 98.5 -39t37.5 -104q0 -80 -59.5 -117t-147.5 -37q-70 0 -140 25l21 62q43 -13 98 -13q56 0 93.5 18.5t37.5 61.5q0 34 -22.5 55t-69.5 21l-39 -4l-30 35l45 129q-137 12 -260.5 72.5t-215 155.5t-145 227t-53.5 278z"/>
<glyph unicode="È" horiz-adv-x="1325" d="M209 0v1434h975v-121h-848v-557h727v-117h-727v-518h878v-121h-1005zM535 1772l116 63l125 -313h-69z"/>
<glyph unicode="É" horiz-adv-x="1325" d="M209 0v1434h975v-121h-848v-557h727v-117h-727v-518h878v-121h-1005zM621 1522l127 313l114 -63l-172 -250h-69z"/>
<glyph unicode="Ê" horiz-adv-x="1325" d="M209 0v1434h975v-121h-848v-557h727v-117h-727v-518h878v-121h-1005zM471 1522l211 229h90l215 -229h-102l-156 143l-158 -143h-100z"/>
<glyph unicode="Ë" horiz-adv-x="1325" d="M209 0v1434h975v-121h-848v-557h727v-117h-727v-518h878v-121h-1005zM438 1606q0 37 25.5 62.5t60.5 25.5q42 0 67 -24t25 -64q0 -36 -25 -60t-67 -24q-37 0 -61.5 24.5t-24.5 59.5zM829 1606q0 37 25.5 62.5t60.5 25.5q43 0 68 -24t25 -64q0 -36 -25.5 -60t-67.5 -24 q-37 0 -61.5 24.5t-24.5 59.5z"/>
<glyph unicode="Ì" horiz-adv-x="544" d="M66 1772l114 63l127 -313h-71zM209 0v1434h127v-1434h-127z"/>
<glyph unicode="Í" horiz-adv-x="544" d="M209 0v1434h127v-1434h-127zM242 1522l127 313l114 -63l-172 -250h-69z"/>
<glyph unicode="Î" horiz-adv-x="544" d="M16 1522l209 229h92l213 -229h-102l-154 143l-157 -143h-101zM209 0v1434h127v-1434h-127z"/>
<glyph unicode="Ï" horiz-adv-x="544" d="M-12 1606q0 37 25.5 62.5t60.5 25.5q43 0 68.5 -24t25.5 -64q0 -36 -26 -60t-68 -24q-37 0 -61.5 24.5t-24.5 59.5zM209 0v1434h127v-1434h-127zM379 1606q0 37 25.5 62.5t60.5 25.5q42 0 67 -24t25 -64q0 -36 -25 -60t-67 -24q-37 0 -61.5 24.5t-24.5 59.5z"/>
<glyph unicode="Ð" horiz-adv-x="1470" d="M31 682v76h192v676h484q162 0 321 -91q163 -96 239 -260.5t76 -365.5q0 -97 -17.5 -186t-54.5 -171.5t-98.5 -152t-144.5 -117.5q-87 -50 -173 -70t-148 -20h-484v682h-192zM350 121h336q148 0 285 80q126 73 186 208t60 308q0 175 -60 308.5t-186 207.5q-133 80 -285 80 h-336v-555h344v-76h-344v-561z"/>
<glyph unicode="Ñ" horiz-adv-x="1497" d="M209 0v1434h131q520 -772 825 -1237h4l-8 510v727h127v-1434h-133q-529 801 -821 1241h-4l6 -512v-729h-127zM463 1573q33 57 82 91t104 34q44 0 122.5 -41t127.5 -41q65 0 117 65l43 -32q-33 -58 -84 -91.5t-109 -33.5q-42 0 -118 40t-127 40q-58 0 -113 -64z"/>
<glyph unicode="Ò" horiz-adv-x="1701" d="M119 717q0 203 100 372.5t268.5 266t364.5 96.5q200 0 368 -98.5t265.5 -267.5t97.5 -369q0 -202 -99.5 -371.5t-267.5 -266.5t-364 -97q-200 0 -368.5 98t-266.5 267t-98 370zM252 717q0 -171 78.5 -313t216.5 -224t305 -82q166 0 303.5 82t216 224t78.5 313 q0 169 -78 310.5t-215.5 224.5t-304.5 83q-165 0 -302.5 -81.5t-217.5 -223.5t-80 -313zM668 1772l114 63l127 -313h-69z"/>
<glyph unicode="Ó" horiz-adv-x="1701" d="M119 717q0 203 100 372.5t268.5 266t364.5 96.5q200 0 368 -98.5t265.5 -267.5t97.5 -369q0 -202 -99.5 -371.5t-267.5 -266.5t-364 -97q-200 0 -368.5 98t-266.5 267t-98 370zM252 717q0 -171 78.5 -313t216.5 -224t305 -82q166 0 303.5 82t216 224t78.5 313 q0 169 -78 310.5t-215.5 224.5t-304.5 83q-165 0 -302.5 -81.5t-217.5 -223.5t-80 -313zM793 1522l125 313l116 -63l-172 -250h-69z"/>
<glyph unicode="Ô" horiz-adv-x="1701" d="M119 717q0 203 100 372.5t268.5 266t364.5 96.5q200 0 368 -98.5t265.5 -267.5t97.5 -369q0 -202 -99.5 -371.5t-267.5 -266.5t-364 -97q-200 0 -368.5 98t-266.5 267t-98 370zM252 717q0 -171 78.5 -313t216.5 -224t305 -82q166 0 303.5 82t216 224t78.5 313 q0 169 -78 310.5t-215.5 224.5t-304.5 83q-165 0 -302.5 -81.5t-217.5 -223.5t-80 -313zM594 1522l211 229h92l213 -229h-102l-156 143l-158 -143h-100z"/>
<glyph unicode="Õ" horiz-adv-x="1701" d="M119 717q0 203 100 372.5t268.5 266t364.5 96.5q200 0 368 -98.5t265.5 -267.5t97.5 -369q0 -202 -99.5 -371.5t-267.5 -266.5t-364 -97q-200 0 -368.5 98t-266.5 267t-98 370zM252 717q0 -171 78.5 -313t216.5 -224t305 -82q166 0 303.5 82t216 224t78.5 313 q0 169 -78 310.5t-215.5 224.5t-304.5 83q-165 0 -302.5 -81.5t-217.5 -223.5t-80 -313zM555 1573q33 58 82.5 91.5t107.5 33.5q49 0 122 -41t124 -41q67 0 115 65l45 -32q-33 -58 -82.5 -91.5t-107.5 -33.5q-51 0 -124 40t-124 40q-58 0 -113 -64z"/>
<glyph unicode="Ö" horiz-adv-x="1701" d="M119 717q0 203 100 372.5t268.5 266t364.5 96.5q200 0 368 -98.5t265.5 -267.5t97.5 -369q0 -202 -99.5 -371.5t-267.5 -266.5t-364 -97q-200 0 -368.5 98t-266.5 267t-98 370zM252 717q0 -171 78.5 -313t216.5 -224t305 -82q166 0 303.5 82t216 224t78.5 313 q0 169 -78 310.5t-215.5 224.5t-304.5 83q-165 0 -302.5 -81.5t-217.5 -223.5t-80 -313zM567 1606q0 37 25.5 62.5t60.5 25.5q42 0 67 -24t25 -64q0 -36 -25 -60t-67 -24q-37 0 -61.5 24.5t-24.5 59.5zM958 1606q0 37 25.5 62.5t60.5 25.5q43 0 68 -24t25 -64 q0 -36 -25.5 -60t-67.5 -24q-37 0 -61.5 24.5t-24.5 59.5z"/>
<glyph unicode="×" horiz-adv-x="913" d="M166 430l231 229l-231 232l57 57l234 -229l233 233l60 -59l-234 -234l232 -229l-60 -61l-231 233l-232 -233z"/>
<glyph unicode="Ø" horiz-adv-x="1701" d="M119 717q0 203 100 372.5t268.5 266t364.5 96.5q199 0 367 -100l92 141h88l-117 -182q140 -103 220.5 -259t80.5 -335q0 -202 -99.5 -371.5t-267.5 -266.5t-364 -97q-193 0 -365 96l-90 -141h-88l117 180q-142 102 -224.5 259.5t-82.5 340.5zM252 717q0 -153 63 -283.5 t174 -216.5l666 1034q-139 84 -303 84q-165 0 -302.5 -81.5t-217.5 -223.5t-80 -313zM553 178q135 -80 299 -80q166 0 303.5 82t216 224t78.5 313q0 149 -62 278t-171 215z"/>
<glyph unicode="Ù" horiz-adv-x="1468" d="M199 586v848h123v-959q0 -145 122 -249.5t289 -104.5q169 0 290.5 104.5t121.5 249.5v959h125v-848q0 -97 -8 -170q-17 -177 -168.5 -296.5t-360.5 -119.5q-138 0 -255 54.5t-188.5 149.5t-82.5 212q-8 73 -8 170zM569 1772l115 63l127 -313h-70z"/>
<glyph unicode="Ú" horiz-adv-x="1468" d="M199 586v848h123v-959q0 -145 122 -249.5t289 -104.5q169 0 290.5 104.5t121.5 249.5v959h125v-848q0 -97 -8 -170q-17 -177 -168.5 -296.5t-360.5 -119.5q-138 0 -255 54.5t-188.5 149.5t-82.5 212q-8 73 -8 170zM657 1522l127 313l115 -63l-170 -250h-72z"/>
<glyph unicode="Û" horiz-adv-x="1468" d="M199 586v848h123v-959q0 -145 122 -249.5t289 -104.5q169 0 290.5 104.5t121.5 249.5v959h125v-848q0 -97 -8 -170q-17 -177 -168.5 -296.5t-360.5 -119.5q-138 0 -255 54.5t-188.5 149.5t-82.5 212q-8 73 -8 170zM477 1522l209 229h92l213 -229h-102l-154 143l-160 -143 h-98z"/>
<glyph unicode="Ü" horiz-adv-x="1468" d="M199 586v848h123v-959q0 -145 122 -249.5t289 -104.5q169 0 290.5 104.5t121.5 249.5v959h125v-848q0 -97 -8 -170q-17 -177 -168.5 -296.5t-360.5 -119.5q-138 0 -255 54.5t-188.5 149.5t-82.5 212q-8 73 -8 170zM451 1606q0 37 25.5 62.5t60.5 25.5q42 0 67 -24t25 -64 q0 -36 -25 -60t-67 -24q-37 0 -61.5 24.5t-24.5 59.5zM842 1606q0 37 25.5 62.5t60.5 25.5q42 0 67 -24t25 -64q0 -36 -25 -60t-67 -24q-37 0 -61.5 24.5t-24.5 59.5z"/>
<glyph unicode="Ý" horiz-adv-x="1196" d="M27 1434h139l430 -727h4l430 727h139l-510 -846v-588h-122v588zM516 1522l127 313l115 -63l-170 -250h-72z"/>
<glyph unicode="Þ" horiz-adv-x="1296" d="M209 0v1434h127v-279h471q166 0 286.5 -129t120.5 -297q0 -108 -53.5 -206.5t-146.5 -159t-201 -60.5h-477v-303h-127zM336 422h471q114 0 197 94t83 213q0 130 -91.5 217.5t-219.5 87.5h-440v-612z"/>
<glyph unicode="ß" horiz-adv-x="1232" d="M172 0v1016q0 101 28 180.5t70.5 126.5t99 77t107.5 41t101 11q172 0 281.5 -100.5t109.5 -270.5q0 -56 -17 -102.5t-41 -78t-48 -61.5t-41 -67t-17 -80q0 -30 19 -57.5t49.5 -51t67.5 -48t74 -53.5t67.5 -62t49.5 -79t19 -99q0 -164 -107.5 -259.5t-275.5 -95.5 q-37 0 -74 6t-63 13.5t-54.5 19.5t-42.5 20t-33 19t-20 12l43 107q2 -1 28 -13.5t55 -25t74.5 -23t88.5 -10.5q109 0 181.5 61t72.5 171q0 61 -35.5 109.5t-86.5 82.5t-102 67t-86.5 79.5t-35.5 103.5q0 46 17 87t41 73l48 64t41 74t17 89q0 31 -6.5 62.5t-25 67t-47.5 62.5 t-77.5 44.5t-110.5 17.5q-32 0 -65 -7t-73 -29.5t-69.5 -58.5t-50 -99.5t-20.5 -145.5v-987h-125z"/>
<glyph unicode="à" horiz-adv-x="1157" d="M82 315q0 88 37 153.5t102 103t145 55.5t175 18q139 0 299 -29v111q0 136 -76 191t-215 55q-78 0 -174.5 -13t-163.5 -34l-27 96q185 61 383 61q201 0 298.5 -81.5t97.5 -260.5v-577q0 -47 59 -47q38 0 74 6v-105q-8 -5 -46 -11.5t-65 -6.5q-54 0 -96.5 29t-42.5 84v73 q-45 -90 -150 -147t-233 -57q-102 0 -187 36t-139.5 113.5t-54.5 183.5zM203 319q0 -108 83.5 -168.5t194.5 -60.5q140 0 249.5 91t109.5 208v117q-38 9 -122.5 21t-164.5 12q-67 0 -125 -10.5t-111 -34t-83.5 -68.5t-30.5 -107zM403 1444l115 63l127 -313h-70z"/>
<glyph unicode="á" horiz-adv-x="1157" d="M82 315q0 88 37 153.5t102 103t145 55.5t175 18q139 0 299 -29v111q0 136 -76 191t-215 55q-78 0 -174.5 -13t-163.5 -34l-27 96q185 61 383 61q201 0 298.5 -81.5t97.5 -260.5v-577q0 -47 59 -47q38 0 74 6v-105q-8 -5 -46 -11.5t-65 -6.5q-54 0 -96.5 29t-42.5 84v73 q-45 -90 -150 -147t-233 -57q-102 0 -187 36t-139.5 113.5t-54.5 183.5zM203 319q0 -108 83.5 -168.5t194.5 -60.5q140 0 249.5 91t109.5 208v117q-38 9 -122.5 21t-164.5 12q-67 0 -125 -10.5t-111 -34t-83.5 -68.5t-30.5 -107zM496 1194l127 313l114 -63l-172 -250h-69z "/>
<glyph unicode="â" horiz-adv-x="1157" d="M82 315q0 88 37 153.5t102 103t145 55.5t175 18q139 0 299 -29v111q0 136 -76 191t-215 55q-78 0 -174.5 -13t-163.5 -34l-27 96q185 61 383 61q201 0 298.5 -81.5t97.5 -260.5v-577q0 -47 59 -47q38 0 74 6v-105q-8 -5 -46 -11.5t-65 -6.5q-54 0 -96.5 29t-42.5 84v73 q-45 -90 -150 -147t-233 -57q-102 0 -187 36t-139.5 113.5t-54.5 183.5zM203 319q0 -108 83.5 -168.5t194.5 -60.5q140 0 249.5 91t109.5 208v117q-38 9 -122.5 21t-164.5 12q-67 0 -125 -10.5t-111 -34t-83.5 -68.5t-30.5 -107zM315 1194l211 229h92l213 -229h-102 l-156 143l-157 -143h-101z"/>
<glyph unicode="ã" horiz-adv-x="1157" d="M82 315q0 88 37 153.5t102 103t145 55.5t175 18q139 0 299 -29v111q0 136 -76 191t-215 55q-78 0 -174.5 -13t-163.5 -34l-27 96q185 61 383 61q201 0 298.5 -81.5t97.5 -260.5v-577q0 -47 59 -47q38 0 74 6v-105q-8 -5 -46 -11.5t-65 -6.5q-54 0 -96.5 29t-42.5 84v73 q-45 -90 -150 -147t-233 -57q-102 0 -187 36t-139.5 113.5t-54.5 183.5zM203 319q0 -108 83.5 -168.5t194.5 -60.5q140 0 249.5 91t109.5 208v117q-38 9 -122.5 21t-164.5 12q-67 0 -125 -10.5t-111 -34t-83.5 -68.5t-30.5 -107zM287 1245q34 58 84 91.5t106 33.5 q41 0 118.5 -41t129.5 -41q66 0 115 66l43 -33q-31 -57 -83 -91t-110 -34q-42 0 -119 40t-125 40q-26 0 -50 -11.5t-34 -21t-30 -31.5z"/>
<glyph unicode="ä" horiz-adv-x="1157" d="M82 315q0 88 37 153.5t102 103t145 55.5t175 18q139 0 299 -29v111q0 136 -76 191t-215 55q-78 0 -174.5 -13t-163.5 -34l-27 96q185 61 383 61q201 0 298.5 -81.5t97.5 -260.5v-577q0 -47 59 -47q38 0 74 6v-105q-8 -5 -46 -11.5t-65 -6.5q-54 0 -96.5 29t-42.5 84v73 q-45 -90 -150 -147t-233 -57q-102 0 -187 36t-139.5 113.5t-54.5 183.5zM203 319q0 -108 83.5 -168.5t194.5 -60.5q140 0 249.5 91t109.5 208v117q-38 9 -122.5 21t-164.5 12q-67 0 -125 -10.5t-111 -34t-83.5 -68.5t-30.5 -107zM309 1278q0 37 25.5 62.5t60.5 25.5 q42 0 67 -24t25 -64q0 -36 -25 -60t-67 -24q-37 0 -61.5 24.5t-24.5 59.5zM700 1278q0 37 25.5 62.5t60.5 25.5q43 0 68 -24t25 -64q0 -36 -25.5 -60t-67.5 -24q-37 0 -61.5 24.5t-24.5 59.5z"/>
<glyph unicode="å" horiz-adv-x="1157" d="M82 315q0 88 37 153.5t102 103t145 55.5t175 18q139 0 299 -29v111q0 136 -76 191t-215 55q-78 0 -174.5 -13t-163.5 -34l-27 96q185 61 383 61q201 0 298.5 -81.5t97.5 -260.5v-577q0 -47 59 -47q38 0 74 6v-105q-8 -5 -46 -11.5t-65 -6.5q-54 0 -96.5 29t-42.5 84v73 q-45 -90 -150 -147t-233 -57q-102 0 -187 36t-139.5 113.5t-54.5 183.5zM203 319q0 -108 83.5 -168.5t194.5 -60.5q140 0 249.5 91t109.5 208v117q-38 9 -122.5 21t-164.5 12q-67 0 -125 -10.5t-111 -34t-83.5 -68.5t-30.5 -107zM418 1362q0 71 52 118.5t120 47.5t120 -47 t52 -117q0 -74 -51.5 -122t-120.5 -48t-120.5 48t-51.5 120zM473 1362q0 -48 35.5 -78.5t81.5 -30.5q47 0 81 30t34 79q0 47 -35.5 76.5t-79.5 29.5q-46 0 -81.5 -31t-35.5 -75z"/>
<glyph unicode="æ" horiz-adv-x="1910" d="M82 315q0 88 37 153.5t102 103t145 55.5t175 18q115 0 274 -24q5 39 25 106q0 136 -76 191t-215 55q-78 0 -174.5 -13t-163.5 -34l-27 96q185 61 383 61q150 0 241.5 -44.5t129.5 -139.5q70 87 172 135.5t221 48.5q112 0 206 -45.5t154.5 -121.5t94 -171.5t33.5 -197.5 q0 -18 -1.5 -33.5t-3.5 -21.5l-2 -7h-874q9 -168 127.5 -277.5t294.5 -109.5q152 0 332 78l43 -102q-189 -92 -375 -92q-154 0 -276.5 67t-192.5 184q-76 -129 -181 -190t-247 -61q-102 0 -187 36t-139.5 113.5t-54.5 183.5zM203 319q0 -108 83.5 -168.5t194.5 -60.5 q128 0 232 77t123 183q-24 76 -27 162q-143 27 -256 27q-67 0 -125 -10.5t-111 -34t-83.5 -68.5t-30.5 -107zM936 582h762q-2 97 -43 183t-125 144t-193 58q-162 0 -276 -111t-125 -274z"/>
<glyph unicode="ç" horiz-adv-x="1062" d="M104 532q0 148 73.5 274.5t202 201.5t279.5 75q169 0 318 -71l-45 -101q-12 6 -38 16t-93.5 25t-132.5 15q-97 0 -181 -37t-140 -98t-88 -139.5t-32 -160.5t32 -160t88 -139t140 -98t181 -37q65 0 132.5 15t93.5 25t38 16l45 -101q-144 -68 -303 -71h-10l-27 -93 q12 2 20 2q62 0 100 -39.5t38 -103.5q0 -79 -58.5 -116.5t-144.5 -37.5q-73 0 -143 25l20 62q50 -13 104 -13q53 0 89 19t36 61q0 34 -22.5 55t-69.5 21l-39 -4l-30 35l47 135q-211 32 -345.5 185.5t-134.5 356.5z"/>
<glyph unicode="è" horiz-adv-x="1204" d="M106 530q0 150 67 276.5t187.5 201.5t268.5 75q112 0 206 -45.5t154 -121.5t93.5 -171.5t33.5 -197.5q0 -18 -1.5 -33.5t-2.5 -21.5l-2 -7h-874q9 -168 127 -277.5t294 -109.5q152 0 332 78l43 -102q-189 -92 -375 -92q-160 0 -286.5 72t-195.5 197t-69 279zM233 582h762 q-2 72 -26.5 140t-68.5 123t-113 88.5t-152 33.5q-162 0 -276.5 -111.5t-125.5 -273.5zM465 1446l115 63l127 -313h-72z"/>
<glyph unicode="é" horiz-adv-x="1204" d="M106 530q0 150 67 276.5t187.5 201.5t268.5 75q112 0 206 -45.5t154 -121.5t93.5 -171.5t33.5 -197.5q0 -18 -1.5 -33.5t-2.5 -21.5l-2 -7h-874q9 -168 127 -277.5t294 -109.5q152 0 332 78l43 -102q-189 -92 -375 -92q-160 0 -286.5 72t-195.5 197t-69 279zM233 582h762 q-2 72 -26.5 140t-68.5 123t-113 88.5t-152 33.5q-162 0 -276.5 -111.5t-125.5 -273.5zM545 1194l127 313l114 -63l-170 -250h-71z"/>
<glyph unicode="ê" horiz-adv-x="1204" d="M106 530q0 150 67 276.5t187.5 201.5t268.5 75q112 0 206 -45.5t154 -121.5t93.5 -171.5t33.5 -197.5q0 -18 -1.5 -33.5t-2.5 -21.5l-2 -7h-874q9 -168 127 -277.5t294 -109.5q152 0 332 78l43 -102q-189 -92 -375 -92q-160 0 -286.5 72t-195.5 197t-69 279zM233 582h762 q-2 72 -26.5 140t-68.5 123t-113 88.5t-152 33.5q-162 0 -276.5 -111.5t-125.5 -273.5zM373 1196l209 229h92l213 -229h-103l-153 143l-160 -143h-98z"/>
<glyph unicode="ë" horiz-adv-x="1204" d="M106 530q0 150 67 276.5t187.5 201.5t268.5 75q112 0 206 -45.5t154 -121.5t93.5 -171.5t33.5 -197.5q0 -18 -1.5 -33.5t-2.5 -21.5l-2 -7h-874q9 -168 127 -277.5t294 -109.5q152 0 332 78l43 -102q-189 -92 -375 -92q-160 0 -286.5 72t-195.5 197t-69 279zM233 582h762 q-2 72 -26.5 140t-68.5 123t-113 88.5t-152 33.5q-162 0 -276.5 -111.5t-125.5 -273.5zM352 1278q0 37 25.5 62.5t60.5 25.5q42 0 67 -24t25 -64q0 -36 -25 -60t-67 -24q-37 0 -61.5 24.5t-24.5 59.5zM743 1278q0 37 25.5 62.5t60.5 25.5q43 0 68 -24t25 -64 q0 -36 -25.5 -60t-67.5 -24q-37 0 -61.5 24.5t-24.5 59.5z"/>
<glyph unicode="ì" horiz-adv-x="489" d="M27 1444l116 63l125 -313h-69zM86 979v86h231v-1065h-122v948z"/>
<glyph unicode="í" horiz-adv-x="489" d="M86 979v86h231v-1065h-122v948zM182 1194l127 313l115 -63l-172 -250h-70z"/>
<glyph unicode="î" horiz-adv-x="489" d="M-49 1194l211 229h92l213 -229h-102l-156 143l-158 -143h-100zM86 979v86h231v-1065h-122v948z"/>
<glyph unicode="ï" horiz-adv-x="489" d="M-78 1278q0 38 26 63t62 25q41 0 66.5 -24t25.5 -64q0 -36 -25.5 -60t-66.5 -24q-38 0 -63 24t-25 60zM86 979v86h231v-1065h-122v948zM313 1278q0 37 25.5 62.5t60.5 25.5q43 0 68 -24t25 -64q0 -36 -25.5 -60t-67.5 -24q-37 0 -61.5 24.5t-24.5 59.5z"/>
<glyph unicode="ð" horiz-adv-x="1161" d="M129 463q0 103 35.5 190t96.5 145.5t141.5 91t170.5 32.5q112 0 207 -47.5t146 -137.5q-15 137 -75.5 264t-152.5 216q-31 -20 -101 -66.5t-101 -67.5l-35 54l190 125q-103 85 -254 149l37 66q158 -56 295 -160l186 125l37 -53l-174 -119q80 -73 137.5 -165.5t87.5 -188 t43 -182t13 -171.5q0 -256 -128 -409.5t-341 -153.5q-139 0 -245 62t-161 167t-55 234zM244 461q0 -144 93.5 -244t250.5 -100q148 0 244 102.5t96 251.5q0 151 -97.5 245.5t-242.5 94.5q-156 0 -250 -101.5t-94 -248.5z"/>
<glyph unicode="ñ" horiz-adv-x="1243" d="M172 0v1065h98l23 -215q4 20 20.5 47t49 60t75 61t105.5 46.5t133 18.5q192 0 298.5 -119t106.5 -337v-627h-123v625q0 157 -79.5 247.5t-225.5 90.5q-87 0 -158 -35t-113 -90.5t-64.5 -119t-22.5 -126.5v-592h-123zM350 1245q34 58 84.5 91.5t106.5 33.5q41 0 118 -41 t129 -41q66 0 115 66l43 -33q-31 -57 -82.5 -91t-109.5 -34q-42 0 -119 40t-125 40q-26 0 -50 -11.5t-35 -21.5t-30 -31z"/>
<glyph unicode="ò" d="M104 530q0 114 43.5 217t117 176.5t174.5 116.5t212 43q149 0 275 -73t199 -200t73 -280q0 -151 -73.5 -277t-199.5 -198.5t-274 -72.5t-274 72.5t-199.5 198.5t-73.5 277zM227 530q0 -180 123.5 -306t300.5 -126q175 0 299.5 126t124.5 306q0 182 -124.5 309.5 t-299.5 127.5q-177 0 -300.5 -127t-123.5 -310zM510 1444l115 63l127 -313h-72z"/>
<glyph unicode="ó" d="M104 530q0 114 43.5 217t117 176.5t174.5 116.5t212 43q149 0 275 -73t199 -200t73 -280q0 -151 -73.5 -277t-199.5 -198.5t-274 -72.5t-274 72.5t-199.5 198.5t-73.5 277zM227 530q0 -180 123.5 -306t300.5 -126q175 0 299.5 126t124.5 306q0 182 -124.5 309.5 t-299.5 127.5q-177 0 -300.5 -127t-123.5 -310zM551 1194l127 313l115 -63l-172 -250h-70z"/>
<glyph unicode="ô" d="M104 530q0 114 43.5 217t117 176.5t174.5 116.5t212 43q149 0 275 -73t199 -200t73 -280q0 -151 -73.5 -277t-199.5 -198.5t-274 -72.5t-274 72.5t-199.5 198.5t-73.5 277zM227 530q0 -180 123.5 -306t300.5 -126q175 0 299.5 126t124.5 306q0 182 -124.5 309.5 t-299.5 127.5q-177 0 -300.5 -127t-123.5 -310zM393 1194l211 229h92l213 -229h-102l-156 143l-157 -143h-101z"/>
<glyph unicode="õ" d="M104 530q0 114 43.5 217t117 176.5t174.5 116.5t212 43q149 0 275 -73t199 -200t73 -280q0 -151 -73.5 -277t-199.5 -198.5t-274 -72.5t-274 72.5t-199.5 198.5t-73.5 277zM227 530q0 -180 123.5 -306t300.5 -126q175 0 299.5 126t124.5 306q0 182 -124.5 309.5 t-299.5 127.5q-177 0 -300.5 -127t-123.5 -310zM352 1245q34 58 84.5 91.5t106.5 33.5q41 0 118.5 -41t129.5 -41q65 0 114 66l43 -33q-31 -57 -82.5 -91t-109.5 -34q-42 0 -119 40t-125 40q-60 0 -115 -64z"/>
<glyph unicode="ö" d="M104 530q0 114 43.5 217t117 176.5t174.5 116.5t212 43q149 0 275 -73t199 -200t73 -280q0 -151 -73.5 -277t-199.5 -198.5t-274 -72.5t-274 72.5t-199.5 198.5t-73.5 277zM227 530q0 -180 123.5 -306t300.5 -126q175 0 299.5 126t124.5 306q0 182 -124.5 309.5 t-299.5 127.5q-177 0 -300.5 -127t-123.5 -310zM367 1278q0 37 25.5 62.5t60.5 25.5q42 0 67 -24t25 -64q0 -36 -25 -60t-67 -24q-37 0 -61.5 24.5t-24.5 59.5zM758 1278q0 37 25.5 62.5t60.5 25.5q42 0 67 -24t25 -64q0 -36 -25 -60t-67 -24q-37 0 -61.5 24.5t-24.5 59.5z "/>
<glyph unicode="÷" horiz-adv-x="1179" d="M164 604v92h854v-92h-854zM498 326q0 38 28 65t66 27q37 0 64.5 -27.5t27.5 -64.5q0 -39 -27.5 -67t-64.5 -28q-39 0 -66.5 26.5t-27.5 68.5zM498 979q0 39 27.5 66.5t66.5 27.5q37 0 64.5 -27.5t27.5 -66.5q0 -38 -27.5 -66t-64.5 -28q-39 0 -66.5 26.5t-27.5 67.5z"/>
<glyph unicode="ø" d="M104 530q0 114 43.5 217t117 176.5t174.5 116.5t212 43q149 0 269 -69l84 129h75l-106 -164q105 -76 165 -194t60 -255q0 -151 -73.5 -277t-199.5 -198.5t-274 -72.5q-146 0 -272 71l-80 -123h-76l103 158q-103 76 -162.5 192t-59.5 250zM227 530q0 -102 43.5 -191.5 t118.5 -150.5l467 725q-100 54 -205 54q-177 0 -300.5 -127t-123.5 -310zM442 154q98 -56 209 -56q175 0 299.5 126t124.5 306q0 104 -45 195.5t-121 151.5z"/>
<glyph unicode="ù" horiz-adv-x="1243" d="M162 426v639h125v-625q0 -163 77.5 -250.5t251.5 -87.5q133 0 230.5 97t97.5 233v633h127v-1065h-98l-19 193q-46 -102 -143.5 -156.5t-216.5 -54.5q-217 0 -324.5 114t-107.5 330zM453 1444l116 63l125 -313h-69z"/>
<glyph unicode="ú" horiz-adv-x="1243" d="M162 426v639h125v-625q0 -163 77.5 -250.5t251.5 -87.5q133 0 230.5 97t97.5 233v633h127v-1065h-98l-19 193q-46 -102 -143.5 -156.5t-216.5 -54.5q-217 0 -324.5 114t-107.5 330zM541 1194l127 313l114 -63l-172 -250h-69z"/>
<glyph unicode="û" horiz-adv-x="1243" d="M162 426v639h125v-625q0 -163 77.5 -250.5t251.5 -87.5q133 0 230.5 97t97.5 233v633h127v-1065h-98l-19 193q-46 -102 -143.5 -156.5t-216.5 -54.5q-217 0 -324.5 114t-107.5 330zM362 1194l211 229h91l215 -229h-105l-153 143l-158 -143h-101z"/>
<glyph unicode="ü" horiz-adv-x="1243" d="M162 426v639h125v-625q0 -163 77.5 -250.5t251.5 -87.5q133 0 230.5 97t97.5 233v633h127v-1065h-98l-19 193q-46 -102 -143.5 -156.5t-216.5 -54.5q-217 0 -324.5 114t-107.5 330zM334 1278q0 37 25.5 62.5t60.5 25.5q42 0 67 -24t25 -64q0 -36 -25 -60t-67 -24 q-37 0 -61.5 24.5t-24.5 59.5zM725 1278q0 37 25.5 62.5t60.5 25.5q42 0 67 -24t25 -64q0 -36 -25 -60t-67 -24q-37 0 -61.5 24.5t-24.5 59.5z"/>
<glyph unicode="ý" horiz-adv-x="1056" d="M39 1065h131l356 -926h4l353 926h133l-436 -1100q-23 -55 -39.5 -90.5t-46 -82t-59 -74t-72.5 -47t-93 -19.5q-82 0 -176 33l27 112q85 -25 141 -22q32 0 60 14.5t47.5 34t39 53.5t30.5 59.5t26 65.5zM451 1194l127 313l114 -63l-172 -250h-69z"/>
<glyph unicode="þ" horiz-adv-x="1320" d="M172 -348v1782h117v-598q56 122 167.5 184.5t245.5 62.5q143 0 260 -73.5t182.5 -199.5t65.5 -278q0 -144 -61.5 -268.5t-180 -203t-268.5 -78.5q-80 0 -158.5 24.5t-147.5 80.5t-99 134v-569h-123zM285 532q0 -184 115.5 -309t283.5 -125q170 0 286.5 126t116.5 308 q0 184 -117.5 309.5t-283.5 125.5q-170 0 -285.5 -127t-115.5 -308z"/>
<glyph unicode="ÿ" horiz-adv-x="1056" d="M39 1065h131l356 -926h4l353 926h133l-436 -1100q-23 -55 -39.5 -90.5t-46 -82t-59 -74t-72.5 -47t-93 -19.5q-82 0 -176 33l27 112q85 -25 141 -22q32 0 60 14.5t47.5 34t39 53.5t30.5 59.5t26 65.5zM244 1278q0 37 25.5 62.5t60.5 25.5q42 0 67 -24t25 -64 q0 -36 -25 -60t-67 -24q-37 0 -61.5 24.5t-24.5 59.5zM635 1278q0 37 25.5 62.5t60.5 25.5q42 0 67 -24t25 -64q0 -36 -25 -60t-67 -24q-37 0 -61.5 24.5t-24.5 59.5z"/>
<glyph unicode="Œ" horiz-adv-x="1968" d="M121 721q0 148 59 281t158.5 227t234.5 149.5t283 55.5h971v-127h-811v-547h692v-125h-692v-508h844v-127h-1004q-201 0 -370 96t-267 262t-98 363zM254 719q0 -165 80 -301t218.5 -213.5t305.5 -77.5h45v1180h-49q-165 0 -302.5 -76.5t-217.5 -212t-80 -299.5z"/>
<glyph unicode="œ" horiz-adv-x="2174" d="M104 532q0 114 43.5 216.5t117 176t174.5 116t212 42.5q165 0 297 -86.5t189 -228.5q52 142 175 228.5t285 86.5q90 0 169 -29.5t136.5 -81t99.5 -119.5t62.5 -147t20.5 -161q0 -16 -1.5 -30.5t-2.5 -21.5t0 -8h-879q15 -178 146.5 -282.5t320.5 -104.5q121 0 291 74 l35 -96q-193 -94 -371 -94q-176 0 -304.5 86t-182.5 229q-58 -142 -189 -228.5t-297 -86.5q-148 0 -274 73t-199.5 199.5t-73.5 277.5zM229 532q0 -88 33.5 -168.5t90.5 -138.5t135 -92.5t163 -34.5t163 34.5t135 92.5t90.5 138.5t33.5 168.5q1 90 -33 171t-91 138.5 t-135 91.5t-163 34t-163 -34t-135 -91.5t-90.5 -138.5t-33.5 -171zM1202 582h762q-1 71 -26.5 139.5t-70.5 123.5t-115 88.5t-153 33.5q-77 0 -149 -31.5t-124.5 -84t-86 -123t-37.5 -146.5zM2081 485z"/>
<glyph unicode="Ÿ" horiz-adv-x="1196" d="M27 1434h139l430 -727h4l430 727h139l-510 -846v-588h-122v588zM313 1606q0 36 26 62t60 26q42 0 67.5 -24.5t25.5 -63.5q0 -37 -25.5 -60.5t-67.5 -23.5q-37 0 -61.5 23.5t-24.5 60.5zM702 1606q0 36 26.5 62t62.5 26q41 0 66.5 -24.5t25.5 -63.5q0 -37 -25.5 -60.5 t-66.5 -23.5q-37 0 -63 24t-26 60z"/>
<glyph unicode="ˆ" horiz-adv-x="843" d="M164 1282l211 229h92l213 -229h-102l-154 143l-160 -143h-100z"/>
<glyph unicode="˜" horiz-adv-x="923" d="M164 1311q33 56 81.5 89.5t102.5 33.5q44 0 123.5 -40t128.5 -40q70 0 115 65l45 -33q-33 -57 -83.5 -90.5t-107.5 -33.5q-43 0 -121 39.5t-126 39.5q-26 0 -50 -11t-35 -21.5t-30 -30.5z"/>
<glyph unicode=" " horiz-adv-x="927"/>
<glyph unicode=" " horiz-adv-x="1855"/>
<glyph unicode=" " horiz-adv-x="927"/>
<glyph unicode=" " horiz-adv-x="1855"/>
<glyph unicode=" " horiz-adv-x="618"/>
<glyph unicode=" " horiz-adv-x="463"/>
<glyph unicode=" " horiz-adv-x="309"/>
<glyph unicode=" " horiz-adv-x="309"/>
<glyph unicode=" " horiz-adv-x="231"/>
<glyph unicode=" " horiz-adv-x="371"/>
<glyph unicode=" " horiz-adv-x="103"/>
<glyph unicode="‐" horiz-adv-x="1034" d="M154 614v93h729v-93h-729z"/>
<glyph unicode="‑" horiz-adv-x="1034" d="M154 614v93h729v-93h-729z"/>
<glyph unicode="‒" horiz-adv-x="1034" d="M154 614v93h729v-93h-729z"/>
<glyph unicode="–" horiz-adv-x="1447" d="M154 614v93h1140v-93h-1140z"/>
<glyph unicode="—" horiz-adv-x="1591" d="M154 614v93h1286v-93h-1286z"/>
<glyph unicode="‘" horiz-adv-x="479" d="M121 1190q0 85 58 152.5t143 107.5l30 -49q-53 -29 -103 -95t-26 -124q12 22 49 22t56.5 -26t19.5 -60q0 -41 -31 -66.5t-69 -25.5q-58 0 -92.5 50t-34.5 114z"/>
<glyph unicode="’" horiz-adv-x="481" d="M137 1075q54 32 102.5 96.5t24.5 122.5q-10 -20 -47 -20q-38 0 -57 24.5t-19 59.5q0 40 31.5 66t69.5 26q57 0 92 -50.5t35 -113.5q0 -84 -58.5 -151t-142.5 -109z"/>
<glyph unicode="‚" horiz-adv-x="489" d="M131 -199q21 13 46 34.5t51 53t34.5 64t-2.5 67.5q-12 -20 -49 -20t-56.5 25.5t-19.5 58.5q0 40 31.5 66t69.5 26q58 0 92 -50t34 -114q0 -84 -57.5 -151t-142.5 -109z"/>
<glyph unicode="“" horiz-adv-x="854" d="M131 1192q0 84 59 151t144 107l31 -47q-21 -13 -46 -34.5t-51 -53t-34.5 -64t2.5 -67.5q12 20 47 20q38 0 56.5 -25t18.5 -59q0 -42 -30 -67t-68 -25q-58 0 -93.5 50.5t-35.5 113.5zM487 1192q0 84 59 151t144 107l29 -47q-54 -32 -102.5 -96.5t-24.5 -122.5q12 20 47 20 q38 0 57 -25t19 -59q0 -41 -31 -66.5t-68 -25.5q-58 0 -93.5 50.5t-35.5 113.5z"/>
<glyph unicode="”" horiz-adv-x="860" d="M150 1075q54 32 102 96.5t24 122.5q-10 -20 -47 -20q-38 0 -56.5 25t-18.5 59q0 42 31 67t69 25q57 0 92 -50.5t35 -113.5q0 -84 -58.5 -151t-142.5 -107zM506 1075q54 32 102.5 96.5t24.5 122.5q-12 -20 -47 -20q-38 0 -57 25t-19 59q0 42 31 67t69 25q57 0 92 -50.5 t35 -113.5q0 -84 -58 -151t-142 -107z"/>
<glyph unicode="„" horiz-adv-x="864" d="M141 -199q54 32 102.5 96.5t24.5 122.5q-10 -20 -47 -20q-38 0 -57 25t-19 59q0 40 31.5 66t69.5 26q57 0 92 -50.5t35 -113.5q0 -84 -58.5 -151t-142.5 -109zM498 -199q54 32 102.5 96.5t24.5 122.5q-12 -20 -47 -20q-38 0 -57 25t-19 59q0 41 31 66.5t69 25.5 q57 0 92 -50.5t35 -113.5q0 -84 -58.5 -151t-142.5 -109z"/>
<glyph unicode="•" horiz-adv-x="610" d="M137 721q0 66 50.5 115t119.5 49q68 0 117 -49.5t49 -118.5q0 -67 -49.5 -116.5t-116.5 -49.5q-69 0 -119.5 50t-50.5 120z"/>
<glyph unicode="…" horiz-adv-x="1257" d="M143 88q0 40 28.5 68t68.5 28q41 0 69.5 -28t28.5 -68t-28.5 -68t-69.5 -28q-40 0 -68.5 28t-28.5 68zM524 88q0 40 28.5 68t68.5 28q41 0 69.5 -28t28.5 -68t-28.5 -68t-69.5 -28q-40 0 -68.5 28t-28.5 68zM922 88q0 40 28 68t68 28q41 0 69.5 -28t28.5 -68t-28.5 -68 t-69.5 -28q-40 0 -68 28t-28 68z"/>
<glyph unicode=" " horiz-adv-x="371"/>
<glyph unicode="‹" horiz-adv-x="710" d="M109 520v25l413 463l66 -68l-332 -408l330 -409l-64 -66z"/>
<glyph unicode="›" horiz-adv-x="710" d="M125 940l65 68l414 -463v-25l-414 -463l-63 66l330 409z"/>
<glyph unicode=" " horiz-adv-x="463"/>
<glyph unicode="€" horiz-adv-x="1632" d="M123 549v78h225q-6 43 -6 90q0 53 6 106h-225v78h242q64 239 262.5 395t453.5 156q111 0 222.5 -27t199.5 -71l-47 -97q-19 9 -53 22t-131.5 34.5t-186.5 21.5q-207 0 -366 -120.5t-217 -313.5h540v-78h-559q-8 -47 -8 -106q0 -47 6 -90h561v-78h-546q55 -199 217.5 -325 t373.5 -126q89 1 181.5 20.5t139.5 38.5l48 19l47 -96q-88 -45 -199 -71.5t-223 -26.5q-167 0 -318 71.5t-258 201.5t-145 294h-237z"/>
<glyph unicode="™" horiz-adv-x="1603" d="M158 1354v80h510v-80h-213v-549h-84v549h-213zM809 805v629h74l227 -390l229 390h66v-629h-78v465l-190 -346h-52l-200 360v-479h-76z"/>
</font>
</defs>
</svg>
